Coordinates
version=1
nRows=16
nColumns=40
inDegrees=yes

Units are S.I. units (second, meters, Newtons, ...)
If the header above contains a line with 'inDegrees', this indicates whether rotational values are in degrees (yes) or radians (no).

endheader
time	pelvis_tilt	pelvis_list	pelvis_rotation	pelvis_tx	pelvis_ty	pelvis_tz	hip_flexion_r	hip_adduction_r	hip_rotation_r	knee_angle_r	knee_angle_r_beta	ankle_angle_r	subtalar_angle_r	mtp_angle_r	hip_flexion_l	hip_adduction_l	hip_rotation_l	knee_angle_l	knee_angle_l_beta	ankle_angle_l	subtalar_angle_l	mtp_angle_l	lumbar_extension	lumbar_bending	lumbar_rotation	arm_flex_r	arm_add_r	arm_rot_r	elbow_flex_r	pro_sup_r	wrist_flex_r	wrist_dev_r	arm_flex_l	arm_add_l	arm_rot_l	elbow_flex_l	pro_sup_l	wrist_flex_l	wrist_dev_l
      6.05000000	    -28.68329616	      5.61451788	     -5.87703777	     -0.37656829	      0.85392973	     -1.06943014	     23.95077513	     -3.95414765	     -1.45718615	     73.83140962	      1.28860119	     15.06756183	      0.00000000	      0.00000000	     68.58722433	      0.95656378	     -7.44105516	     69.01129525	      1.20447432	     17.01952452	      0.00000000	      0.00000000	      2.03577650	    -13.78677902	     10.72852635	     89.97134754	     -8.51121089	     11.36747750	     51.53238826	     20.63738109	      0.00000000	      0.00000000	     89.96890994	    -14.83357193	      8.00257004	     55.20132104	     76.30436438	      0.00000000	      0.00000000
      6.05500000	    -28.61007638	      5.59125087	     -5.89573592	     -0.37621855	      0.85505844	     -1.06928046	     23.91157036	     -3.93848106	     -1.47983128	     73.97048375	      1.29102849	     15.06077178	      0.00000000	      0.00000000	     68.37432055	      0.89190133	     -7.52724487	     68.82198700	      1.20117027	     16.96472750	      0.00000000	      0.00000000	      2.02610275	    -13.80742968	     10.70222824	     89.97124157	     -8.53702673	     11.40411714	     51.46850391	     20.63542546	      0.00000000	      0.00000000	     89.96894261	    -14.86908134	      8.03044220	     55.20222045	     76.31539732	      0.00000000	      0.00000000
      6.06000000	    -28.54243343	      5.55044655	     -5.93883442	     -0.37575520	      0.85617171	     -1.06915394	     23.89001445	     -3.91736174	     -1.51864116	     74.12973371	      1.29380793	     15.06490239	      0.00000000	      0.00000000	     68.17010284	      0.83418523	     -7.54809976	     68.65534067	      1.19826174	     16.88108688	      0.00000000	      0.00000000	      2.03228868	    -13.78721751	     10.71146879	     89.97109861	     -8.57747401	     11.44261635	     51.39094285	     20.62982761	      0.00000000	      0.00000000	     89.96886814	    -14.92610627	      8.04958634	     55.20350233	     76.32488631	      0.00000000	      0.00000000
      6.06500000	    -28.48445872	      5.48682733	     -5.96514398	     -0.37536213	      0.85728804	     -1.06902626	     23.87208447	     -3.88474044	     -1.57533570	     74.29950934	      1.29677107	     15.08127887	      0.00000000	      0.00000000	     67.96593967	      0.76224513	     -7.55073652	     68.44009521	      1.19450500	     16.78420220	      0.00000000	      0.00000000	      2.05447517	    -13.74637297	     10.69810416	     89.97103639	     -8.59235705	     11.51807900	     51.28293663	     20.62416382	      0.00000000	      0.00000000	     89.96880689	    -14.96964677	      8.09897792	     55.19447042	     76.33773215	      0.00000000	      0.00000000
      6.07000000	    -28.30787684	      5.55221378	     -6.00137410	     -0.37473042	      0.85870820	     -1.06883742	     23.71938042	     -3.96479315	     -1.53355329	     74.43452618	      1.29912756	     15.08689555	      0.00000000	      0.00000000	     67.59526600	      0.78928271	     -7.64582906	     68.14656875	      1.18938200	     16.62927608	      0.00000000	      0.00000000	      1.96002335	    -13.85966550	     10.61365173	     89.97094391	     -8.62107900	     11.80480297	     51.17320335	     20.63314695	      0.00000000	      0.00000000	     89.96873444	    -15.11794295	      8.18151230	     55.18749209	     76.36761939	      0.00000000	      0.00000000
      6.07500000	    -28.25323308	      5.50879524	     -6.00038346	     -0.37429901	      0.85987358	     -1.06878923	     23.70073173	     -3.96339517	     -1.60657083	     74.57068756	      1.30150402	     15.09969595	      0.00000000	      0.00000000	     67.40320779	      0.74432131	     -7.66475521	     67.98132902	      1.18649802	     16.58616830	      0.00000000	      0.00000000	      1.97342707	    -13.84730650	     10.60498185	     89.97085569	     -8.66573204	     11.81075841	     51.06129053	     20.62808583	      0.00000000	      0.00000000	     89.96867715	    -15.15807970	      8.21693565	     55.20287719	     76.38243022	      0.00000000	      0.00000000
      6.08000000	    -28.12274216	      5.50937280	     -6.06059607	     -0.37376679	      0.86126677	     -1.06856300	     23.62149115	     -4.00504782	     -1.66702285	     74.70246366	      1.30380395	     15.16352749	      0.00000000	      0.00000000	     67.08064695	      0.71182430	     -7.69616976	     67.69035906	      1.18141964	     16.48535863	      0.00000000	      0.00000000	      1.92849861	    -13.89666801	     10.60876925	     89.97077256	     -8.68886087	     11.88891202	     50.92227502	     20.62508086	      0.00000000	      0.00000000	     89.96858048	    -15.22387922	      8.27905802	     55.19785529	     76.40466747	      0.00000000	      0.00000000
      6.08500000	    -28.05875975	      5.46803416	     -6.09260602	     -0.37330020	      0.86241430	     -1.06849336	     23.58913854	     -3.98819667	     -1.68332269	     74.84703342	      1.30632717	     15.20433374	      0.00000000	      0.00000000	     66.86692330	      0.66694777	     -7.69554076	     67.48742175	      1.17787771	     16.42882909	      0.00000000	      0.00000000	      1.94583803	    -13.88031722	     10.60860122	     89.97068473	     -8.73209026	     11.94872831	     50.82326182	     20.62392101	      0.00000000	      0.00000000	     89.96854708	    -15.27253940	      8.30978032	     55.20067851	     76.42233336	      0.00000000	      0.00000000
      6.09000000	    -27.93935264	      5.46895215	     -6.11847355	     -0.37281963	      0.86386889	     -1.06838012	     23.51762107	     -4.02955491	     -1.72931392	     74.95473382	      1.30820690	     15.21749719	      0.00000000	      0.00000000	     66.55689642	      0.65622056	     -7.74006233	     67.19101565	      1.17270445	     16.33313812	      0.00000000	      0.00000000	      1.89955995	    -13.92064508	     10.59378360	     89.97061905	     -8.76663836	     12.05988044	     50.68371392	     20.62151155	      0.00000000	      0.00000000	     89.96846618	    -15.33683646	      8.36434710	     55.19389218	     76.44594388	      0.00000000	      0.00000000
      6.09500000	    -27.83143300	      5.47435427	     -6.09048273	     -0.37230199	      0.86510791	     -1.06843739	     23.43494560	     -4.11189888	     -1.79962518	     75.06379037	      1.31011029	     15.25097520	      0.00000000	      0.00000000	     66.28452484	      0.68026570	     -7.80271007	     66.95096866	      1.16851484	     16.24320299	      0.00000000	      0.00000000	      1.87151083	    -13.95696875	     10.54311786	     89.97049791	     -8.83165134	     12.14928017	     50.55780860	     20.62134705	      0.00000000	      0.00000000	     89.96840907	    -15.40210627	      8.42640031	     55.18306219	     76.47390061	      0.00000000	      0.00000000
      6.10000000	    -27.78765442	      5.39128488	     -6.06100154	     -0.37190024	      0.86640302	     -1.06829957	     23.41107553	     -4.05359260	     -1.89838370	     75.15826672	      1.31175921	     15.26937168	      0.00000000	      0.00000000	     66.07647783	      0.63589039	     -7.79107677	     66.70144354	      1.16415981	     16.15150396	      0.00000000	      0.00000000	      1.88587330	    -13.92032379	     10.46721280	     89.97035662	     -8.88652861	     12.21660128	     50.44687727	     20.62001975	      0.00000000	      0.00000000	     89.96836379	    -15.46872687	      8.46806528	     55.19408458	     76.49624968	      0.00000000	      0.00000000
      6.10500000	    -27.78391222	      5.36499575	     -6.03807157	     -0.37166752	      0.86757364	     -1.06806656	     23.43870068	     -4.03275614	     -1.93455561	     75.17271130	      1.31201132	     15.27570678	      0.00000000	      0.00000000	     66.00955006	      0.61728724	     -7.77356799	     66.65501066	      1.16334940	     16.13161325	      0.00000000	      0.00000000	      1.93817849	    -13.92513430	     10.43744874	     89.97024157	     -8.91335967	     12.21512607	     50.44927816	     20.62070367	      0.00000000	      0.00000000	     89.96836695	    -15.48404566	      8.46022319	     55.21831988	     76.49857495	      0.00000000	      0.00000000
      6.11000000	    -27.72262127	      5.20442557	     -5.97649704	     -0.37122796	      0.86896653	     -1.06801090	     23.41910216	     -3.94418959	     -2.14397269	     75.31990033	      1.31458025	     15.34043456	      0.00000000	      0.00000000	     65.70670246	      0.57762088	     -7.67081359	     66.21747956	      1.15571304	     15.96112004	      0.00000000	      0.00000000	      1.92884496	    -13.80846703	     10.34168514	     89.97021214	     -9.03788803	     12.33656890	     50.23306364	     20.61151780	      0.00000000	      0.00000000	     89.96822056	    -15.53890950	      8.53646566	     55.21193384	     76.52581152	      0.00000000	      0.00000000
      6.11500000	    -27.59426816	      5.19419478	     -6.03102482	     -0.37048014	      0.87033193	     -1.06787839	     23.28526966	     -3.99419055	     -2.22185238	     75.32328158	      1.31463927	     15.38133052	      0.00000000	      0.00000000	     65.37909082	      0.58529884	     -7.60857438	     65.93410524	      1.15076723	     15.80350074	      0.00000000	      0.00000000	      1.91608871	    -13.82706837	     10.35986123	     89.97011483	     -9.08559299	     12.54068248	     50.03800532	     20.61173486	      0.00000000	      0.00000000	     89.96807534	    -15.63291234	      8.64869542	     55.12938202	     76.56487428	      0.00000000	      0.00000000
      6.12000000	    -27.44227955	      5.23123531	     -6.06012310	     -0.36975869	      0.87175380	     -1.06774820	     23.13587812	     -4.09014042	     -2.27045549	     75.31805311	      1.31454801	     15.43252950	      0.00000000	      0.00000000	     65.01909144	      0.58374887	     -7.74223615	     65.66370212	      1.14604780	     15.73598997	      0.00000000	      0.00000000	      1.86026577	    -13.92770922	     10.29145279	     89.97002645	     -9.17157080	     12.83018133	     49.90175993	     20.66516227	      0.00000000	      0.00000000	     89.96805980	    -15.76745133	      8.77902623	     55.14928494	     76.70584631	      0.00000000	      0.00000000
      6.12500000	    -27.36949953	      5.16159114	     -6.05250036	     -0.36932839	      0.87317837	     -1.06769383	     23.10924535	     -4.05658730	     -2.32332792	     75.39427704	      1.31587837	     15.42197398	      0.00000000	      0.00000000	     64.78148263	      0.55999273	     -7.69980399	     65.40394449	      1.14151418	     15.64555325	      0.00000000	      0.00000000	      1.84470313	    -13.88725937	     10.26989534	     89.96987572	     -9.23791678	     12.85956502	     49.81175734	     20.66937396	      0.00000000	      0.00000000	     89.96793548	    -15.80688129	      8.81259886	     55.10894845	     76.73430914	      0.00000000	      0.00000000
